<svg xmlns="http://www.w3.org/2000/svg" viewBox="0 0 320 48" fill="none">
  <defs>
    <clipPath id="picado">
      <path d="
        M0,6 
        L4,0 L8,6 L12,0 L16,6 L20,0 L24,6 L28,0 L32,6 
        L36,0 L40,6 L44,0 L48,6 L52,0 L56,6 L60,0 L64,6 
        L68,0 L72,6 L76,0 L80,6 L84,0 L88,6 L92,0 L96,6 
        L100,0 L104,6 L108,0 L112,6 L116,0 L120,6 L124,0 L128,6 
        L132,0 L136,6 L140,0 L144,6 L148,0 L152,6 L156,0 L160,6 
        L164,0 L168,6 L172,0 L176,6 L180,0 L184,6 L188,0 L192,6 
        L196,0 L200,6 L204,0 L208,6 L212,0 L216,6 L220,0 L224,6 
        L228,0 L232,6 L236,0 L240,6 L244,0 L248,6 L252,0 L256,6 
        L260,0 L264,6 L268,0 L272,6 L276,0 L280,6 L284,0 L288,6 
        L292,0 L296,6 L300,0 L304,6 L308,0 L312,6 L316,0 L320,6 
        L320,48 L0,48 Z
      "/>
    </clipPath>
  </defs>
  <g clip-path="url(#picado)">
    <rect width="320" height="48" fill="#D8A25E"/>
    <text x="8" y="35" 
          font-family="Georgia,'Times New Roman',serif" 
          font-size="24" font-weight="700" 
          fill="#1A2421" letter-spacing="3">VALLES</text>
    <text x="140" y="35" 
          font-family="Georgia,'Times New Roman',serif" 
          font-size="24" font-weight="700" 
          fill="#1A2421" letter-spacing="3">CENTRALES</text>
  </g>
  <path d="
    M0,42 L4,48 L8,42 L12,48 L16,42 L20,48 L24,42 L28,48 L32,42 
    L36,48 L40,42 L44,48 L48,42 L52,48 L56,42 L60,48 L64,42 
    L68,48 L72,42 L76,48 L80,42 L84,48 L88,42 L92,48 L96,42 
    L100,48 L104,42 L108,48 L112,42 L116,48 L120,42 L124,48 L128,42 
    L132,48 L136,42 L140,48 L144,42 L148,48 L152,42 L156,48 L160,42 
    L164,48 L168,42 L172,48 L176,42 L180,48 L184,42 L188,48 L192,42 
    L196,48 L200,42 L204,48 L208,42 L212,48 L216,42 L220,48 L224,42 
    L228,48 L232,42 L236,48 L240,42 L244,48 L248,42 L252,48 L256,42 
    L260,48 L264,42 L268,48 L272,42 L276,48 L280,42 L284,48 L288,42 
    L292,48 L296,42 L300,48 L304,42 L308,48 L312,42 L316,48 L320,42
  " fill="#1A2421"/>
</svg>
